<?xml version="1.0" encoding="UTF-8" standalone="no"?>
<!DOCTYPE svg PUBLIC "-//W3C//DTD SVG 1.1//EN"
 "http://www.w3.org/Graphics/SVG/1.1/DTD/svg11.dtd">
<!-- Generated by graphviz version 3.0.0 (20220226.1711)
 -->
<!-- Pages: 1 -->
<svg width="1535pt" height="476pt"
 viewBox="0.00 0.00 1534.67 476.00" xmlns="http://www.w3.org/2000/svg" xmlns:xlink="http://www.w3.org/1999/xlink">
<g id="graph0" class="graph" transform="scale(1 1) rotate(0) translate(4 472)">
<polygon fill="white" stroke="transparent" points="-4,4 -4,-472 1530.67,-472 1530.67,4 -4,4"/>
<!-- [root] aws_instance.this (expand) -->
<g id="node1" class="node">
<title>[root] aws_instance.this (expand)</title>
<polygon fill="none" stroke="black" points="707,-324 595,-324 595,-288 707,-288 707,-324"/>
<text text-anchor="middle" x="651" y="-302.3" font-family="Times,serif" font-size="14.00">aws_instance.this</text>
</g>
<!-- [root] aws_key_pair.this (expand) -->
<g id="node3" class="node">
<title>[root] aws_key_pair.this (expand)</title>
<polygon fill="none" stroke="black" points="645,-180 531,-180 531,-144 645,-144 645,-180"/>
<text text-anchor="middle" x="588" y="-158.3" font-family="Times,serif" font-size="14.00">aws_key_pair.this</text>
</g>
<!-- [root] aws_instance.this (expand)&#45;&gt;[root] aws_key_pair.this (expand) -->
<g id="edge1" class="edge">
<title>[root] aws_instance.this (expand)&#45;&gt;[root] aws_key_pair.this (expand)</title>
<path fill="none" stroke="black" d="M644.53,-287.75C637.64,-269.68 626.2,-240.57 615,-216 610.95,-207.13 606.22,-197.58 601.85,-189.08"/>
<polygon fill="black" stroke="black" points="604.85,-187.26 597.14,-180 598.64,-190.49 604.85,-187.26"/>
</g>
<!-- [root] aws_security_group.this (expand) -->
<g id="node8" class="node">
<title>[root] aws_security_group.this (expand)</title>
<polygon fill="none" stroke="black" points="606.5,-252 457.5,-252 457.5,-216 606.5,-216 606.5,-252"/>
<text text-anchor="middle" x="532" y="-230.3" font-family="Times,serif" font-size="14.00">aws_security_group.this</text>
</g>
<!-- [root] aws_instance.this (expand)&#45;&gt;[root] aws_security_group.this (expand) -->
<g id="edge2" class="edge">
<title>[root] aws_instance.this (expand)&#45;&gt;[root] aws_security_group.this (expand)</title>
<path fill="none" stroke="black" d="M621.89,-287.88C606.33,-278.72 586.98,-267.34 570.22,-257.48"/>
<polygon fill="black" stroke="black" points="571.62,-254.24 561.22,-252.19 568.07,-260.28 571.62,-254.24"/>
</g>
<!-- [root] aws_subnet.this (expand) -->
<g id="node9" class="node">
<title>[root] aws_subnet.this (expand)</title>
<polygon fill="none" stroke="black" points="439.5,-252 336.5,-252 336.5,-216 439.5,-216 439.5,-252"/>
<text text-anchor="middle" x="388" y="-230.3" font-family="Times,serif" font-size="14.00">aws_subnet.this</text>
</g>
<!-- [root] aws_instance.this (expand)&#45;&gt;[root] aws_subnet.this (expand) -->
<g id="edge3" class="edge">
<title>[root] aws_instance.this (expand)&#45;&gt;[root] aws_subnet.this (expand)</title>
<path fill="none" stroke="black" d="M594.82,-290.47C549.1,-278.62 487.2,-262.53 449.61,-252.41"/>
<polygon fill="black" stroke="black" points="450.26,-248.96 439.69,-249.72 448.43,-255.71 450.26,-248.96"/>
</g>
<!-- [root] data.aws_ami.ubuntu (expand) -->
<g id="node11" class="node">
<title>[root] data.aws_ami.ubuntu (expand)</title>
<polygon fill="none" stroke="black" points="796.5,-180 663.5,-180 663.5,-144 796.5,-144 796.5,-180"/>
<text text-anchor="middle" x="730" y="-158.3" font-family="Times,serif" font-size="14.00">data.aws_ami.ubuntu</text>
</g>
<!-- [root] aws_instance.this (expand)&#45;&gt;[root] data.aws_ami.ubuntu (expand) -->
<g id="edge4" class="edge">
<title>[root] aws_instance.this (expand)&#45;&gt;[root] data.aws_ami.ubuntu (expand)</title>
<path fill="none" stroke="black" d="M660.53,-287.87C674.17,-263.35 699.38,-218.03 715.39,-189.26"/>
<polygon fill="black" stroke="black" points="718.63,-190.63 720.44,-180.19 712.52,-187.23 718.63,-190.63"/>
</g>
<!-- [root] data.template_cloudinit_config.user_data (expand) -->
<g id="node12" class="node">
<title>[root] data.template_cloudinit_config.user_data (expand)</title>
<polygon fill="none" stroke="black" points="1100,-252 858,-252 858,-216 1100,-216 1100,-252"/>
<text text-anchor="middle" x="979" y="-230.3" font-family="Times,serif" font-size="14.00">data.template_cloudinit_config.user_data</text>
</g>
<!-- [root] aws_instance.this (expand)&#45;&gt;[root] data.template_cloudinit_config.user_data (expand) -->
<g id="edge5" class="edge">
<title>[root] aws_instance.this (expand)&#45;&gt;[root] data.template_cloudinit_config.user_data (expand)</title>
<path fill="none" stroke="black" d="M707.01,-293.05C757,-282.38 831.08,-266.57 889.31,-254.14"/>
<polygon fill="black" stroke="black" points="890.2,-257.53 899.25,-252.02 888.74,-250.68 890.2,-257.53"/>
</g>
<!-- [root] aws_internet_gateway.this (expand) -->
<g id="node2" class="node">
<title>[root] aws_internet_gateway.this (expand)</title>
<polygon fill="none" stroke="black" points="160,-252 0,-252 0,-216 160,-216 160,-252"/>
<text text-anchor="middle" x="80" y="-230.3" font-family="Times,serif" font-size="14.00">aws_internet_gateway.this</text>
</g>
<!-- [root] aws_vpc.this (expand) -->
<g id="node10" class="node">
<title>[root] aws_vpc.this (expand)</title>
<polygon fill="none" stroke="black" points="355.5,-180 268.5,-180 268.5,-144 355.5,-144 355.5,-180"/>
<text text-anchor="middle" x="312" y="-158.3" font-family="Times,serif" font-size="14.00">aws_vpc.this</text>
</g>
<!-- [root] aws_internet_gateway.this (expand)&#45;&gt;[root] aws_vpc.this (expand) -->
<g id="edge6" class="edge">
<title>[root] aws_internet_gateway.this (expand)&#45;&gt;[root] aws_vpc.this (expand)</title>
<path fill="none" stroke="black" d="M136.46,-215.97C173.6,-204.76 221.93,-190.18 258.47,-179.15"/>
<polygon fill="black" stroke="black" points="259.88,-182.38 268.44,-176.14 257.86,-175.68 259.88,-182.38"/>
</g>
<!-- [root] provider[&quot;registry.terraform.io/hashicorp/aws&quot;] -->
<g id="node15" class="node">
<title>[root] provider[&quot;registry.terraform.io/hashicorp/aws&quot;]</title>
<polygon fill="none" stroke="black" points="588,-108 335.46,-90 588,-72 840.54,-90 588,-108"/>
<text text-anchor="middle" x="588" y="-86.3" font-family="Times,serif" font-size="14.00">provider[&quot;registry.terraform.io/hashicorp/aws&quot;]</text>
</g>
<!-- [root] aws_key_pair.this (expand)&#45;&gt;[root] provider[&quot;registry.terraform.io/hashicorp/aws&quot;] -->
<g id="edge7" class="edge">
<title>[root] aws_key_pair.this (expand)&#45;&gt;[root] provider[&quot;registry.terraform.io/hashicorp/aws&quot;]</title>
<path fill="none" stroke="black" d="M588,-143.7C588,-135.98 588,-126.71 588,-118.11"/>
<polygon fill="black" stroke="black" points="591.5,-118.1 588,-108.1 584.5,-118.1 591.5,-118.1"/>
</g>
<!-- [root] var.name -->
<g id="node18" class="node">
<title>[root] var.name</title>
<polygon fill="none" stroke="black" points="311.5,-108 250.5,-108 250.5,-72 317.5,-72 317.5,-102 311.5,-108"/>
<polyline fill="none" stroke="black" points="311.5,-108 311.5,-102 "/>
<polyline fill="none" stroke="black" points="317.5,-102 311.5,-102 "/>
<text text-anchor="middle" x="284" y="-86.3" font-family="Times,serif" font-size="14.00">var.name</text>
</g>
<!-- [root] aws_key_pair.this (expand)&#45;&gt;[root] var.name -->
<g id="edge8" class="edge">
<title>[root] aws_key_pair.this (expand)&#45;&gt;[root] var.name</title>
<path fill="none" stroke="black" d="M530.82,-146.01C527.84,-145.31 524.89,-144.64 522,-144 438.63,-125.63 412.89,-132.21 327.57,-108.17"/>
<polygon fill="black" stroke="black" points="328.3,-104.74 317.72,-105.33 326.36,-111.46 328.3,-104.74"/>
</g>
<!-- [root] var.public_key -->
<g id="node19" class="node">
<title>[root] var.public_key</title>
<polygon fill="none" stroke="black" points="949.5,-108 858.5,-108 858.5,-72 955.5,-72 955.5,-102 949.5,-108"/>
<polyline fill="none" stroke="black" points="949.5,-108 949.5,-102 "/>
<polyline fill="none" stroke="black" points="955.5,-102 949.5,-102 "/>
<text text-anchor="middle" x="907" y="-86.3" font-family="Times,serif" font-size="14.00">var.public_key</text>
</g>
<!-- [root] aws_key_pair.this (expand)&#45;&gt;[root] var.public_key -->
<g id="edge9" class="edge">
<title>[root] aws_key_pair.this (expand)&#45;&gt;[root] var.public_key</title>
<path fill="none" stroke="black" d="M645.32,-146.19C648.59,-145.43 651.83,-144.69 655,-144 737.98,-125.83 762.56,-128.4 848.36,-108.27"/>
<polygon fill="black" stroke="black" points="849.36,-111.63 858.28,-105.91 847.74,-104.82 849.36,-111.63"/>
</g>
<!-- [root] aws_main_route_table_association.this (expand) -->
<g id="node4" class="node">
<title>[root] aws_main_route_table_association.this (expand)</title>
<polygon fill="none" stroke="black" points="363,-324 133,-324 133,-288 363,-288 363,-324"/>
<text text-anchor="middle" x="248" y="-302.3" font-family="Times,serif" font-size="14.00">aws_main_route_table_association.this</text>
</g>
<!-- [root] aws_route_table.this (expand) -->
<g id="node6" class="node">
<title>[root] aws_route_table.this (expand)</title>
<polygon fill="none" stroke="black" points="315,-252 187,-252 187,-216 315,-216 315,-252"/>
<text text-anchor="middle" x="251" y="-230.3" font-family="Times,serif" font-size="14.00">aws_route_table.this</text>
</g>
<!-- [root] aws_main_route_table_association.this (expand)&#45;&gt;[root] aws_route_table.this (expand) -->
<g id="edge10" class="edge">
<title>[root] aws_main_route_table_association.this (expand)&#45;&gt;[root] aws_route_table.this (expand)</title>
<path fill="none" stroke="black" d="M248.74,-287.7C249.07,-279.98 249.47,-270.71 249.84,-262.11"/>
<polygon fill="black" stroke="black" points="253.34,-262.25 250.27,-252.1 246.34,-261.95 253.34,-262.25"/>
</g>
<!-- [root] aws_route.this (expand) -->
<g id="node5" class="node">
<title>[root] aws_route.this (expand)</title>
<polygon fill="none" stroke="black" points="114.5,-324 19.5,-324 19.5,-288 114.5,-288 114.5,-324"/>
<text text-anchor="middle" x="67" y="-302.3" font-family="Times,serif" font-size="14.00">aws_route.this</text>
</g>
<!-- [root] aws_route.this (expand)&#45;&gt;[root] aws_internet_gateway.this (expand) -->
<g id="edge11" class="edge">
<title>[root] aws_route.this (expand)&#45;&gt;[root] aws_internet_gateway.this (expand)</title>
<path fill="none" stroke="black" d="M70.21,-287.7C71.65,-279.98 73.37,-270.71 74.96,-262.11"/>
<polygon fill="black" stroke="black" points="78.44,-262.58 76.82,-252.1 71.56,-261.3 78.44,-262.58"/>
</g>
<!-- [root] aws_route.this (expand)&#45;&gt;[root] aws_route_table.this (expand) -->
<g id="edge12" class="edge">
<title>[root] aws_route.this (expand)&#45;&gt;[root] aws_route_table.this (expand)</title>
<path fill="none" stroke="black" d="M112.01,-287.88C137.5,-278.18 169.57,-265.98 196.48,-255.74"/>
<polygon fill="black" stroke="black" points="198.03,-258.9 206.13,-252.07 195.54,-252.35 198.03,-258.9"/>
</g>
<!-- [root] aws_route_table.this (expand)&#45;&gt;[root] aws_vpc.this (expand) -->
<g id="edge13" class="edge">
<title>[root] aws_route_table.this (expand)&#45;&gt;[root] aws_vpc.this (expand)</title>
<path fill="none" stroke="black" d="M266.08,-215.7C273.39,-207.3 282.31,-197.07 290.34,-187.86"/>
<polygon fill="black" stroke="black" points="293.16,-189.94 297.09,-180.1 287.89,-185.34 293.16,-189.94"/>
</g>
<!-- [root] aws_route_table_association.this (expand) -->
<g id="node7" class="node">
<title>[root] aws_route_table_association.this (expand)</title>
<polygon fill="none" stroke="black" points="576.5,-324 381.5,-324 381.5,-288 576.5,-288 576.5,-324"/>
<text text-anchor="middle" x="479" y="-302.3" font-family="Times,serif" font-size="14.00">aws_route_table_association.this</text>
</g>
<!-- [root] aws_route_table_association.this (expand)&#45;&gt;[root] aws_route_table.this (expand) -->
<g id="edge14" class="edge">
<title>[root] aws_route_table_association.this (expand)&#45;&gt;[root] aws_route_table.this (expand)</title>
<path fill="none" stroke="black" d="M423.52,-287.97C391.24,-278.06 350.39,-265.51 316.54,-255.12"/>
<polygon fill="black" stroke="black" points="317.32,-251.7 306.73,-252.11 315.26,-258.39 317.32,-251.7"/>
</g>
<!-- [root] aws_route_table_association.this (expand)&#45;&gt;[root] aws_subnet.this (expand) -->
<g id="edge15" class="edge">
<title>[root] aws_route_table_association.this (expand)&#45;&gt;[root] aws_subnet.this (expand)</title>
<path fill="none" stroke="black" d="M456.51,-287.7C445.04,-278.88 430.94,-268.03 418.52,-258.47"/>
<polygon fill="black" stroke="black" points="420.3,-255.43 410.24,-252.1 416.03,-260.98 420.3,-255.43"/>
</g>
<!-- [root] aws_security_group.this (expand)&#45;&gt;[root] aws_vpc.this (expand) -->
<g id="edge16" class="edge">
<title>[root] aws_security_group.this (expand)&#45;&gt;[root] aws_vpc.this (expand)</title>
<path fill="none" stroke="black" d="M478.46,-215.97C444.2,-205.06 399.9,-190.97 365.62,-180.06"/>
<polygon fill="black" stroke="black" points="366.37,-176.63 355.78,-176.93 364.25,-183.3 366.37,-176.63"/>
</g>
<!-- [root] var.allowed_ips -->
<g id="node17" class="node">
<title>[root] var.allowed_ips</title>
<polygon fill="none" stroke="black" points="507,-180 411,-180 411,-144 513,-144 513,-174 507,-180"/>
<polyline fill="none" stroke="black" points="507,-180 507,-174 "/>
<polyline fill="none" stroke="black" points="513,-174 507,-174 "/>
<text text-anchor="middle" x="462" y="-158.3" font-family="Times,serif" font-size="14.00">var.allowed_ips</text>
</g>
<!-- [root] aws_security_group.this (expand)&#45;&gt;[root] var.allowed_ips -->
<g id="edge17" class="edge">
<title>[root] aws_security_group.this (expand)&#45;&gt;[root] var.allowed_ips</title>
<path fill="none" stroke="black" d="M514.7,-215.7C506.14,-207.14 495.66,-196.66 486.3,-187.3"/>
<polygon fill="black" stroke="black" points="488.65,-184.7 479.1,-180.1 483.7,-189.65 488.65,-184.7"/>
</g>
<!-- [root] aws_subnet.this (expand)&#45;&gt;[root] aws_vpc.this (expand) -->
<g id="edge18" class="edge">
<title>[root] aws_subnet.this (expand)&#45;&gt;[root] aws_vpc.this (expand)</title>
<path fill="none" stroke="black" d="M369.21,-215.7C359.83,-207.05 348.32,-196.45 338.09,-187.03"/>
<polygon fill="black" stroke="black" points="340.3,-184.3 330.57,-180.1 335.55,-189.45 340.3,-184.3"/>
</g>
<!-- [root] aws_vpc.this (expand)&#45;&gt;[root] provider[&quot;registry.terraform.io/hashicorp/aws&quot;] -->
<g id="edge19" class="edge">
<title>[root] aws_vpc.this (expand)&#45;&gt;[root] provider[&quot;registry.terraform.io/hashicorp/aws&quot;]</title>
<path fill="none" stroke="black" d="M355.73,-149.91C401.57,-138.28 473.99,-119.92 525.77,-106.78"/>
<polygon fill="black" stroke="black" points="526.68,-110.16 535.52,-104.31 524.96,-103.38 526.68,-110.16"/>
</g>
<!-- [root] aws_vpc.this (expand)&#45;&gt;[root] var.name -->
<g id="edge20" class="edge">
<title>[root] aws_vpc.this (expand)&#45;&gt;[root] var.name</title>
<path fill="none" stroke="black" d="M305.08,-143.7C301.93,-135.81 298.12,-126.3 294.62,-117.55"/>
<polygon fill="black" stroke="black" points="297.81,-116.09 290.84,-108.1 291.31,-118.69 297.81,-116.09"/>
</g>
<!-- [root] data.aws_ami.ubuntu (expand)&#45;&gt;[root] provider[&quot;registry.terraform.io/hashicorp/aws&quot;] -->
<g id="edge21" class="edge">
<title>[root] data.aws_ami.ubuntu (expand)&#45;&gt;[root] provider[&quot;registry.terraform.io/hashicorp/aws&quot;]</title>
<path fill="none" stroke="black" d="M695.26,-143.88C674.81,-133.79 648.86,-121 627.61,-110.53"/>
<polygon fill="black" stroke="black" points="629.04,-107.33 618.52,-106.05 625.94,-113.61 629.04,-107.33"/>
</g>
<!-- [root] data.template_file.cloud&#45;init (expand) -->
<g id="node13" class="node">
<title>[root] data.template_file.cloud&#45;init (expand)</title>
<polygon fill="none" stroke="black" points="1199.5,-180 1028.5,-180 1028.5,-144 1199.5,-144 1199.5,-180"/>
<text text-anchor="middle" x="1114" y="-158.3" font-family="Times,serif" font-size="14.00">data.template_file.cloud&#45;init</text>
</g>
<!-- [root] data.template_cloudinit_config.user_data (expand)&#45;&gt;[root] data.template_file.cloud&#45;init (expand) -->
<g id="edge22" class="edge">
<title>[root] data.template_cloudinit_config.user_data (expand)&#45;&gt;[root] data.template_file.cloud&#45;init (expand)</title>
<path fill="none" stroke="black" d="M1012.02,-215.88C1030.08,-206.51 1052.65,-194.81 1071.95,-184.8"/>
<polygon fill="black" stroke="black" points="1073.58,-187.9 1080.85,-180.19 1070.36,-181.69 1073.58,-187.9"/>
</g>
<!-- [root] provider[&quot;registry.terraform.io/hashicorp/template&quot;] -->
<g id="node16" class="node">
<title>[root] provider[&quot;registry.terraform.io/hashicorp/template&quot;]</title>
<polygon fill="none" stroke="black" points="1250,-108 973.17,-90 1250,-72 1526.83,-90 1250,-108"/>
<text text-anchor="middle" x="1250" y="-86.3" font-family="Times,serif" font-size="14.00">provider[&quot;registry.terraform.io/hashicorp/template&quot;]</text>
</g>
<!-- [root] data.template_file.cloud&#45;init (expand)&#45;&gt;[root] provider[&quot;registry.terraform.io/hashicorp/template&quot;] -->
<g id="edge23" class="edge">
<title>[root] data.template_file.cloud&#45;init (expand)&#45;&gt;[root] provider[&quot;registry.terraform.io/hashicorp/template&quot;]</title>
<path fill="none" stroke="black" d="M1147.27,-143.88C1166.64,-133.91 1191.14,-121.29 1211.36,-110.89"/>
<polygon fill="black" stroke="black" points="1213.02,-113.97 1220.31,-106.28 1209.82,-107.74 1213.02,-113.97"/>
</g>
<!-- [root] output.vpn_server_ip -->
<g id="node14" class="node">
<title>[root] output.vpn_server_ip</title>
<polygon fill="none" stroke="black" points="711,-396 585,-396 585,-360 717,-360 717,-390 711,-396"/>
<polyline fill="none" stroke="black" points="711,-396 711,-390 "/>
<polyline fill="none" stroke="black" points="717,-390 711,-390 "/>
<text text-anchor="middle" x="651" y="-374.3" font-family="Times,serif" font-size="14.00">output.vpn_server_ip</text>
</g>
<!-- [root] output.vpn_server_ip&#45;&gt;[root] aws_instance.this (expand) -->
<g id="edge24" class="edge">
<title>[root] output.vpn_server_ip&#45;&gt;[root] aws_instance.this (expand)</title>
<path fill="none" stroke="black" d="M651,-359.7C651,-351.98 651,-342.71 651,-334.11"/>
<polygon fill="black" stroke="black" points="654.5,-334.1 651,-324.1 647.5,-334.1 654.5,-334.1"/>
</g>
<!-- [root] var.region -->
<g id="node20" class="node">
<title>[root] var.region</title>
<polygon fill="none" stroke="black" points="617.5,-36 552.5,-36 552.5,0 623.5,0 623.5,-30 617.5,-36"/>
<polyline fill="none" stroke="black" points="617.5,-36 617.5,-30 "/>
<polyline fill="none" stroke="black" points="623.5,-30 617.5,-30 "/>
<text text-anchor="middle" x="588" y="-14.3" font-family="Times,serif" font-size="14.00">var.region</text>
</g>
<!-- [root] provider[&quot;registry.terraform.io/hashicorp/aws&quot;]&#45;&gt;[root] var.region -->
<g id="edge29" class="edge">
<title>[root] provider[&quot;registry.terraform.io/hashicorp/aws&quot;]&#45;&gt;[root] var.region</title>
<path fill="none" stroke="black" d="M588,-71.7C588,-63.98 588,-54.71 588,-46.11"/>
<polygon fill="black" stroke="black" points="591.5,-46.1 588,-36.1 584.5,-46.1 591.5,-46.1"/>
</g>
<!-- [root] provider[&quot;registry.terraform.io/hashicorp/aws&quot;] (close) -->
<g id="node21" class="node">
<title>[root] provider[&quot;registry.terraform.io/hashicorp/aws&quot;] (close)</title>
<ellipse fill="none" stroke="black" cx="340" cy="-378" rx="227.46" ry="18"/>
<text text-anchor="middle" x="340" y="-374.3" font-family="Times,serif" font-size="14.00">[root] provider[&quot;registry.terraform.io/hashicorp/aws&quot;] (close)</text>
</g>
<!-- [root] provider[&quot;registry.terraform.io/hashicorp/aws&quot;] (close)&#45;&gt;[root] aws_instance.this (expand) -->
<g id="edge25" class="edge">
<title>[root] provider[&quot;registry.terraform.io/hashicorp/aws&quot;] (close)&#45;&gt;[root] aws_instance.this (expand)</title>
<path fill="none" stroke="black" d="M417.42,-361.06C465.71,-350.92 529.1,-337.24 585,-324 585.1,-323.98 585.2,-323.95 585.3,-323.93"/>
<polygon fill="black" stroke="black" points="585.97,-327.37 594.87,-321.62 584.33,-320.56 585.97,-327.37"/>
</g>
<!-- [root] provider[&quot;registry.terraform.io/hashicorp/aws&quot;] (close)&#45;&gt;[root] aws_main_route_table_association.this (expand) -->
<g id="edge26" class="edge">
<title>[root] provider[&quot;registry.terraform.io/hashicorp/aws&quot;] (close)&#45;&gt;[root] aws_main_route_table_association.this (expand)</title>
<path fill="none" stroke="black" d="M317.73,-360.05C305.95,-351.09 291.31,-339.96 278.5,-330.2"/>
<polygon fill="black" stroke="black" points="280.46,-327.3 270.38,-324.03 276.22,-332.87 280.46,-327.3"/>
</g>
<!-- [root] provider[&quot;registry.terraform.io/hashicorp/aws&quot;] (close)&#45;&gt;[root] aws_route.this (expand) -->
<g id="edge27" class="edge">
<title>[root] provider[&quot;registry.terraform.io/hashicorp/aws&quot;] (close)&#45;&gt;[root] aws_route.this (expand)</title>
<path fill="none" stroke="black" d="M270.22,-360.8C230.21,-351.29 178.84,-338.73 124.38,-324.04"/>
<polygon fill="black" stroke="black" points="125.1,-320.61 114.54,-321.37 123.27,-327.36 125.1,-320.61"/>
</g>
<!-- [root] provider[&quot;registry.terraform.io/hashicorp/aws&quot;] (close)&#45;&gt;[root] aws_route_table_association.this (expand) -->
<g id="edge28" class="edge">
<title>[root] provider[&quot;registry.terraform.io/hashicorp/aws&quot;] (close)&#45;&gt;[root] aws_route_table_association.this (expand)</title>
<path fill="none" stroke="black" d="M373.65,-360.05C392.46,-350.58 416.1,-338.68 436.22,-328.55"/>
<polygon fill="black" stroke="black" points="437.82,-331.66 445.18,-324.03 434.67,-325.4 437.82,-331.66"/>
</g>
<!-- [root] provider[&quot;registry.terraform.io/hashicorp/template&quot;] (close) -->
<g id="node22" class="node">
<title>[root] provider[&quot;registry.terraform.io/hashicorp/template&quot;] (close)</title>
<ellipse fill="none" stroke="black" cx="979" cy="-378" rx="244.26" ry="18"/>
<text text-anchor="middle" x="979" y="-374.3" font-family="Times,serif" font-size="14.00">[root] provider[&quot;registry.terraform.io/hashicorp/template&quot;] (close)</text>
</g>
<!-- [root] provider[&quot;registry.terraform.io/hashicorp/template&quot;] (close)&#45;&gt;[root] data.template_cloudinit_config.user_data (expand) -->
<g id="edge30" class="edge">
<title>[root] provider[&quot;registry.terraform.io/hashicorp/template&quot;] (close)&#45;&gt;[root] data.template_cloudinit_config.user_data (expand)</title>
<path fill="none" stroke="black" d="M979,-359.87C979,-335.67 979,-291.21 979,-262.39"/>
<polygon fill="black" stroke="black" points="982.5,-262.19 979,-252.19 975.5,-262.19 982.5,-262.19"/>
</g>
<!-- [root] root -->
<g id="node23" class="node">
<title>[root] root</title>
<ellipse fill="none" stroke="black" cx="651" cy="-450" rx="47.39" ry="18"/>
<text text-anchor="middle" x="651" y="-446.3" font-family="Times,serif" font-size="14.00">[root] root</text>
</g>
<!-- [root] root&#45;&gt;[root] output.vpn_server_ip -->
<g id="edge31" class="edge">
<title>[root] root&#45;&gt;[root] output.vpn_server_ip</title>
<path fill="none" stroke="black" d="M651,-431.7C651,-423.98 651,-414.71 651,-406.11"/>
<polygon fill="black" stroke="black" points="654.5,-406.1 651,-396.1 647.5,-406.1 654.5,-406.1"/>
</g>
<!-- [root] root&#45;&gt;[root] provider[&quot;registry.terraform.io/hashicorp/aws&quot;] (close) -->
<g id="edge32" class="edge">
<title>[root] root&#45;&gt;[root] provider[&quot;registry.terraform.io/hashicorp/aws&quot;] (close)</title>
<path fill="none" stroke="black" d="M611.3,-440.06C563.75,-429.36 482.89,-411.16 421.79,-397.41"/>
<polygon fill="black" stroke="black" points="422.3,-393.94 411.77,-395.15 420.76,-400.77 422.3,-393.94"/>
</g>
<!-- [root] root&#45;&gt;[root] provider[&quot;registry.terraform.io/hashicorp/template&quot;] (close) -->
<g id="edge33" class="edge">
<title>[root] root&#45;&gt;[root] provider[&quot;registry.terraform.io/hashicorp/template&quot;] (close)</title>
<path fill="none" stroke="black" d="M691.22,-440.42C741.33,-429.72 828.32,-411.16 893.57,-397.23"/>
<polygon fill="black" stroke="black" points="894.39,-400.64 903.44,-395.13 892.93,-393.79 894.39,-400.64"/>
</g>
</g>
</svg>
